<?xml version="1.0" encoding="UTF-8"?>
<svg width="50px" height="50px" viewBox="0 0 50 50" version="1.1" xmlns="http://www.w3.org/2000/svg" xmlns:xlink="http://www.w3.org/1999/xlink">
    <!-- Generator: Sketch 52.2 (67145) - http://www.bohemiancoding.com/sketch -->
    <title>ic/facebook</title>
    <desc>Created with Sketch.</desc>
    <g id="ic/facebook" stroke="none" stroke-width="1" fill="none" fill-rule="evenodd" fill-opacity="0.747141078">
        <path d="M43.2397311,0 L6.73435208,0 C3.01528117,0 0.000244498778,3.01491443 0.000244498778,6.73410758 L0.000244498778,43.2397311 C0.000244498778,46.9589242 3.01515892,49.9738386 6.73435208,49.9738386 L24.7386308,49.9738386 L24.7693154,32.1158924 L20.1298289,32.1158924 C19.5268949,32.1158924 19.0375306,31.6283619 19.0352078,31.0254279 L19.0129584,25.2690709 C19.0106357,24.6628362 19.501467,24.1701711 20.1077017,24.1701711 L24.7387531,24.1701711 L24.7387531,18.6080685 C24.7387531,12.1533007 28.6809291,8.63863081 34.4389976,8.63863081 L39.1639364,8.63863081 C39.7684597,8.63863081 40.2586797,9.12872861 40.2586797,9.73337408 L40.2586797,14.5871638 C40.2586797,15.1915648 39.7688264,15.6815403 39.1645477,15.6819071 L36.2649144,15.6832518 C33.1334963,15.6832518 32.5271394,17.1712714 32.5271394,19.3550122 L32.5271394,24.1702934 L39.4079462,24.1702934 C40.0635697,24.1702934 40.5722494,24.7427873 40.4949878,25.3938875 L39.8127139,31.1502445 C39.7474328,31.7011002 39.2803178,32.1161369 38.7256724,32.1161369 L32.557824,32.1161369 L32.5271394,49.9740831 L43.2399756,49.9740831 C46.9590465,49.9740831 49.9739609,46.9591687 49.9739609,43.2400978 L49.9739609,6.73410758 C49.9738386,3.01491443 46.9589242,0 43.2397311,0 Z" id="Path-Copy" fill="#0B2340"></path>
    </g>
</svg>