<?xml version="1.0" encoding="UTF-8"?>
<svg width="50px" height="50px" viewBox="0 0 50 50" version="1.1" xmlns="http://www.w3.org/2000/svg" xmlns:xlink="http://www.w3.org/1999/xlink">
    <!-- Generator: Sketch 52.2 (67145) - http://www.bohemiancoding.com/sketch -->
    <title>ic/instagram</title>
    <desc>Created with Sketch.</desc>
    <g id="ic/instagram" stroke="none" stroke-width="1" fill="none" fill-rule="evenodd" fill-opacity="0.750820879">
        <g id="Group-Copy" fill="#0B2340">
            <path d="M35.1047304,0 L14.8952696,0 C6.68198333,0 0,6.68198333 0,14.8952696 L0,35.1047304 C0,43.3180167 6.68198333,50 14.8952696,50 L35.1047304,50 C43.3180167,50 50,43.3180167 50,35.1047304 L50,14.8952696 C49.9999093,6.68198333 43.3179259,0 35.1047304,0 Z M44.9700019,35.1047304 C44.9700019,40.5531238 40.5531238,44.9700019 35.1047304,44.9700019 L14.8952696,44.9700019 C9.44687624,44.9700019 5.02999815,40.5531238 5.02999815,35.1047304 L5.02999815,14.8952696 C5.02999815,9.4467855 9.44687624,5.02999815 14.8952696,5.02999815 L35.1047304,5.02999815 C40.5531238,5.02999815 44.9700019,9.4467855 44.9700019,14.8952696 L44.9700019,35.1047304 Z" id="Shape" fill-rule="nonzero"></path>
            <path d="M25,12 C17.8317885,12 12,17.8318089 12,24.9999544 C12,32.1680998 17.8317885,38 25,38 C32.1682115,38 38,32.1681911 38,24.9999544 C38,17.8317177 32.1682115,12 25,12 Z M25,32.9435399 C20.6129093,32.9435399 17.0565336,29.3871517 17.0565336,25.0000456 C17.0565336,20.6129396 20.6130006,17.0565513 25,17.0565513 C29.3870907,17.0565513 32.9434664,20.6129396 32.9434664,25.0000456 C32.9434664,29.3870604 29.3869994,32.9435399 25,32.9435399 Z" id="Shape" fill-rule="nonzero"></path>
            <circle id="Oval" cx="38" cy="12" r="3"></circle>
        </g>
    </g>
</svg>