<?xml version="1.0" encoding="UTF-8"?>
<svg width="240px" height="60px" viewBox="0 0 240 60" version="1.1" xmlns="http://www.w3.org/2000/svg" xmlns:xlink="http://www.w3.org/1999/xlink">
    <!-- Generator: Sketch 52.2 (67145) - http://www.bohemiancoding.com/sketch -->
    <title>Group 2</title>
    <desc>Created with Sketch.</desc>
    <g id="Desktop-Website" stroke="none" stroke-width="1" fill="none" fill-rule="evenodd">
        <g id="01-home">
            <g id="header">
                <g id="Group-2">
                    <rect id="Rectangle" fill="#EF6C30" x="0" y="0" width="240" height="60"></rect>
                    <text id="KhelAcademy" fill="#0B2340" font-family="Aller-Bold, Aller" font-size="24" font-weight="bold">
                        <tspan x="69" y="38">KhelAcademy</tspan>
                    </text>
                    <g id="logo" transform="translate(20.000000, 10.000000)">
                        <path d="M33.4,5.20097499 C33.4,5.14671218 33.4,5.14671218 33.3454737,5.11958078 C33.0183158,5.01105516 32.7184211,4.90252955 32.3912632,4.82113534 C31.1371579,4.44129569 29.8830526,4.08858744 28.6016842,3.790142 C27.9746316,3.65448498 27.3203158,3.51882796 26.666,3.41030235 C26.1752632,3.32890814 25.6845263,3.24751393 25.1937895,3.16611972 C24.8121053,3.11185691 24.4304211,3.0575941 24.0487368,3.0304627 C23.6397895,2.97619989 23.2308421,2.94906849 22.7946316,2.92193708 C22.3584211,2.89480568 21.9494737,2.86767428 21.5405263,2.86767428 C20.5317895,2.84054287 19.5503158,2.86767428 18.5688421,2.94906849 C18.1598947,2.97619989 17.7782105,3.0304627 17.3692632,3.0575941 C16.9057895,3.11185691 16.4423158,3.16611972 15.9788421,3.24751393 C15.4335789,3.32890814 14.8883158,3.43743375 14.3157895,3.54595937 C13.4161053,3.73587919 12.4891579,3.95293042 11.6167368,4.16998165 C10.4444211,4.46842709 9.27210526,4.84826674 8.12705263,5.22810639 C7.93621053,5.2823692 7.74536842,5.36376341 7.55452632,5.41802622 C7.5,5.44515762 7.5,5.44515762 7.5,5.49942043 L7.5,3.875 C11.8166667,2.025 16.1333333,1.1 20.45,1.1 C24.7666667,1.1 29.0833333,2.025 33.4,3.875 L33.4,5.20097499 Z M33.4,16.1688449 L33.4,26.075 C32.475,32.55 27.85,35.325 20.45,38.1 C13.05,35.325 8.425,32.55 7.5,26.075 L7.5,8.8101932 C7.5,8.8373246 7.5,8.83732507 7.52726316,8.86445647 C7.55452632,8.86445647 7.58178947,8.83732437 7.60905263,8.83732437 C8.09978947,8.67453595 8.59052632,8.51174795 9.08126316,8.34895953 C9.95368421,8.07764549 10.8533684,7.83346233 11.7530526,7.6435425 C11.8621053,7.6164111 12.162,7.56214875 12.162,7.58928015 C12.162,7.61641155 12.162,15.5176912 12.162,20.3199496 C12.162,20.347081 12.162,20.3742125 12.162,20.4284753 C12.162,20.4284753 12.162,20.4556067 12.162,20.4556067 C12.162,20.4827381 12.1892632,20.4827381 12.1892632,20.4827381 C12.2165263,20.4827381 12.2437895,20.4556067 12.2437895,20.4284753 C12.2710526,20.3742125 12.2983158,20.3199496 12.3255789,20.2656868 C13.9613684,17.6068093 15.6516842,14.9750631 17.3965263,12.3975798 C17.5055789,12.2347914 17.6146316,12.0991344 17.6964211,11.9363459 C17.7236842,11.9092145 17.7509474,11.8820831 17.7782105,11.8820831 C17.8054737,11.8820831 17.8054737,11.8820831 17.8327368,11.8820831 C18.3234737,11.8549517 18.8142105,11.8278203 19.3049474,11.8278203 C20.0137895,11.8006889 20.7226316,11.8278203 21.4587368,11.8549517 C21.8949474,11.8820831 22.3311579,11.9092145 22.7401053,11.9363459 C22.8218947,11.9363459 22.9036842,11.9363459 22.9854737,11.9092145 C23.3398947,11.8278203 23.6943158,11.7735575 24.0487368,11.7192947 C24.3486316,11.6921633 24.6212632,11.6921633 24.9211579,11.6921633 C25.3028421,11.6921633 25.6845263,11.7192947 26.0662105,11.7735575 C26.3933684,11.8278203 26.6932632,11.8820831 27.0204211,11.9363459 C27.702,12.0720029 28.3835789,12.2890542 29.0378947,12.5332368 C29.8557895,12.8588137 30.6191579,13.2929161 31.328,13.8355442 C32.0913684,14.4324351 32.7184211,15.1107202 33.1818947,15.9517937 C33.2364211,16.0874507 33.2909474,16.1959763 33.3727368,16.3045019 C33.4,16.2502391 33.4,16.2231077 33.4,16.1688449 Z M14.0061579,24.2138942 C13.8153158,24.4852082 13.6244737,24.7565223 13.4336316,25.0278363 C13.0246842,25.6518586 12.5884737,26.2758809 12.1795263,26.8727718 C12.1522632,26.9270346 12.125,26.9812974 12.125,27.0355602 C12.125,27.0355602 12.125,27.0626916 12.125,27.0626916 C12.125,28.7177072 12.125,30.3727228 12.125,32.0277384 C12.125,32.0548699 12.125,32.0548699 12.125,32.0820013 C12.125,32.1362641 12.1522632,32.1633955 12.1795263,32.1905269 C13.05,35.2325 20.3954737,37.1096314 20.45,37.0825 C20.6135789,37.0282372 28.5023684,33.5724198 28.775,33.3825 C28.8022632,33.3553686 29.7272632,30.5803686 29.7,30.6075 C29.4818947,30.9330768 28.4283684,31.9463442 28.1284737,32.1905269 C27.6922632,32.5432351 27.2287895,32.7602863 26.6835263,32.8416806 C26.4654211,32.868812 26.2473158,32.8959434 26.0292105,32.9230748 C25.6747895,32.9502062 25.3203684,32.9502062 24.9386842,32.9230748 C24.6660526,32.9230748 24.3661579,32.8959434 24.0935263,32.868812 C23.7118421,32.8416806 23.3301579,32.7874177 22.9484737,32.7331549 C22.4032105,32.6517607 21.8579474,32.4889723 21.3399474,32.2719211 C21.2854211,32.2447897 21.2581579,32.2447897 21.2036316,32.2447897 C21.0945789,32.2447897 21.0127895,32.2447897 20.9037368,32.2447897 C20.1948947,32.2176583 19.5133158,32.2176583 18.8044737,32.2447897 C18.7499474,32.2447897 18.6545263,32.2447897 18.6,32.2447897 C18.5727368,32.2447897 18.5618756,32.1622674 18.5318421,32.1091327 C18.5018086,32.0559979 18.0411053,31.2409277 17.823,30.7796939 C16.5961579,28.5549188 15.3420526,26.3301437 14.0606842,24.1325 C14.0334211,24.1596314 14.0061579,24.1867628 14.0061579,24.2138942 Z M19.5357105,23.6620413 C19.5629737,23.6349099 19.5629737,23.6077785 19.5902368,23.5806471 C19.6992895,23.4449901 19.8083421,23.3093331 19.9173947,23.1736761 C20.3536053,22.7124422 20.8716053,22.3326026 21.4441316,22.0884199 C22.2075,21.7357117 22.9981316,21.5186605 23.8160263,21.3830034 C24.0341316,21.355872 24.2522368,21.3016092 24.4703421,21.2744778 C24.7157105,21.2473464 24.9883421,21.1930836 25.2337105,21.1659522 C25.4790789,21.1388208 25.7244474,21.1116894 25.9698158,21.084558 C26.2697105,21.0574266 26.5968684,21.0302952 26.8967632,21.0031638 C27.1966579,20.9760324 27.4692895,20.9760324 27.7691842,20.9217696 C27.9600263,20.8946382 28.1781316,20.8403754 28.3689737,20.7589812 C28.7233947,20.6233241 28.9415,20.3791415 29.0778158,20.0264333 C29.1596053,19.809382 29.1868684,19.5923308 29.2141316,19.3752796 C29.2413947,19.1310969 29.2413947,18.8869143 29.2141316,18.6427317 C29.1868684,18.262892 29.1050789,17.8830524 28.9415,17.5032127 C28.8051842,17.2047673 28.6143421,16.9063218 28.3144474,16.6350078 C28.0690789,16.4179566 27.7964474,16.2551682 27.4965526,16.1195111 C27.1693947,15.9838541 26.8422368,15.9024599 26.5150789,15.8481971 C26.2424474,15.7939343 25.9425526,15.7939343 25.6699211,15.8481971 C25.2609737,15.9024599 24.9065526,16.0923797 24.6339211,16.4179566 C24.4430789,16.6621392 24.3067632,16.9334532 24.2249737,17.2318987 C24.1431842,17.5303441 24.1159211,17.8287896 24.0886579,18.127235 C24.0886579,18.3171548 24.0886579,18.4799433 24.0886579,18.6427317 C24.0886579,18.6969945 24.1159211,18.7512573 24.0613947,18.8055201 C24.0068684,18.8055201 23.9523421,18.8055201 23.8978158,18.8055201 C23.5433947,18.7783887 23.2162368,18.7241259 22.8618158,18.6969945 C22.5891842,18.6698631 22.3165526,18.6698631 22.0166579,18.6427317 C21.5259211,18.6156003 21.0351842,18.5884689 20.5717105,18.5884689 C20.1355,18.5884689 19.6720263,18.5884689 19.2358158,18.5884689 C19.2085526,18.5884689 19.1540263,18.6156003 19.1267632,18.5613375 C19.1267632,18.5613375 19.0995,18.5613375 19.0995,18.5613375 C19.0722368,18.5884689 19.0722368,18.6156003 19.0449737,18.6427317 C18.6087632,19.2396226 18.1725526,19.8365134 17.7363421,20.4062729 C17.6545526,20.5147985 17.6545526,20.4876671 17.7363421,20.5961927 C18.0362368,21.1116894 18.3361316,21.6543175 18.6360263,22.1698141 C18.8813947,22.6039166 19.1540263,23.0651505 19.3993947,23.5263843 C19.4811842,23.6077785 19.5084474,23.6349099 19.5357105,23.6620413 Z M29.5315376,25.5136693 C29.5315376,24.7811214 29.5315376,24.0757049 29.5315376,23.343157 C29.5315376,23.3160256 29.5315376,23.2888942 29.5315376,23.2346314 C29.5315376,23.2075 29.5042744,23.2075 29.5042744,23.2075 C29.4497481,23.2346314 29.3952218,23.2617628 29.3406955,23.2888942 C29.0135376,23.4245512 28.6863797,23.5330768 28.3319586,23.5873397 C27.9502744,23.6416025 27.5958534,23.6958653 27.2141692,23.7229967 C26.9960639,23.7229967 26.7779586,23.7501281 26.5598534,23.7772595 C26.2599586,23.8315223 25.9328007,23.8857851 25.6601692,23.9943107 C25.0058534,24.2384933 24.5696428,24.6997272 24.3515376,25.3508809 C24.2424849,25.6764577 24.1879586,26.029166 24.1606955,26.3818742 C24.1334323,26.7617139 24.1606955,27.1415535 24.2152218,27.5213932 C24.2970113,27.9554956 24.4060639,28.3895981 24.6241692,28.7694377 C24.8695376,29.257803 25.2784849,29.5833798 25.7964849,29.7732997 C26.0963797,29.8818253 26.4235376,29.9089567 26.7234323,29.9360881 C26.9142744,29.9360881 27.1051165,29.9360881 27.2959586,29.9089567 C27.541327,29.8818253 27.7594323,29.8546939 28.0048007,29.7732997 C28.7954323,29.5019856 29.2861692,28.9593576 29.4770113,28.1725469 C29.5588007,27.9012328 29.5588007,27.6027874 29.5588007,27.3314733 C29.5315376,26.7345825 29.5315376,26.1376916 29.5315376,25.5136693 Z" id="Combined-Shape" fill="#0B2340" fill-rule="evenodd"></path>
                        <path d="M7.5,4.00221512 C7.5,16.2971126 7.5,16.6055083 7.5,26.8910352 C8.31421478,32.339967 11.6079518,35.185931 20,38.3960525 C28.3920482,35.185931 31.6857852,32.339967 32.5,26.8910352 C32.5,15.9716523 32.5,15.6364123 32.5,4.00221512 C28.3214498,2.33204845 24.1574987,1.5 20,1.5 C15.8425013,1.5 11.6785502,2.33204845 7.5,4.00221515 Z" id="Rectangle-Copy" stroke="#0B2340" stroke-width="3"></path>
                    </g>
                </g>
            </g>
        </g>
    </g>
</svg>