<?xml version="1.0" encoding="UTF-8"?>
<svg width="50px" height="50px" viewBox="0 0 50 50" version="1.1" xmlns="http://www.w3.org/2000/svg" xmlns:xlink="http://www.w3.org/1999/xlink">
    <!-- Generator: Sketch 52.2 (67145) - http://www.bohemiancoding.com/sketch -->
    <title>ic/whatsapp</title>
    <desc>Created with Sketch.</desc>
    <g id="ic/whatsapp" stroke="none" stroke-width="1" fill="none" fill-rule="evenodd" fill-opacity="0.752774004">
        <path d="M23.6192124,0.0288782816 C38.1020286,-0.660859189 50.0134845,11.1056086 49.5634845,25.5379475 C49.1436754,39.00179 37.9130072,49.69642 24.4441527,49.4906921 C20.6275656,49.4324582 17.0213604,48.5087112 13.8107399,46.9094272 L1.31396181,49.8701671 C0.628639618,50.0324582 0.00644391408,49.428401 0.148568019,48.7385442 L2.77589499,35.9852029 C1.0646778,32.6341289 0.0946300716,28.8415274 0.0824582339,24.823389 C0.0424821002,11.6307876 10.4415274,0.656324582 23.6192124,0.0288782816 Z M38.5305489,38.4483294 C42.1576372,34.8213604 44.2059666,29.8760143 44.2060859,24.74642 C44.2059666,19.5707637 42.1904535,14.7048926 38.5306683,11.0451074 C34.8708831,7.38544153 30.0051313,5.3699284 24.8294749,5.36980907 C19.7,5.36980907 14.7546539,7.41813842 11.1275656,11.0452267 C7.46778043,14.7051313 5.4522673,19.5710024 5.4522673,24.746778 C5.4522673,27.8466587 6.16085919,30.8062053 7.55835322,33.5430788 L8.41575179,35.2220764 L6.80298329,43.051074 L14.4647971,41.2357995 L16.2051313,42.1027446 C18.897136,43.4436754 21.798568,44.1236277 24.8291169,44.1236277 C30.0047733,44.1236277 34.8707637,42.1081146 38.5305489,38.4483294 Z M36.8391408,30.1134845 C37.9873508,30.4431981 38.4926014,31.7828162 37.8527446,32.7915274 C36.9142005,34.2710024 35.4270883,36.0779236 33.5662291,36.5286396 C30.2854415,37.323389 25.2465394,36.547494 18.9541766,30.6745823 C13.5075179,25.5910501 12.0671838,21.3573986 12.4073986,17.998926 C12.600358,16.0940334 14.1877088,14.3745823 15.525537,13.2430788 C16.4375895,12.4717184 17.8336516,12.7897375 18.3167064,13.8822196 L20.3334129,18.4434368 C20.598568,19.0430788 20.5139618,19.7397375 20.1130072,20.2584726 L19.0896181,21.5824582 C18.6581146,22.1408115 18.6,22.9058473 18.951432,23.5177804 C20.1695704,25.6391408 24.9394988,29.8801909 27.2070406,30.797852 C27.8612172,31.0625298 28.6112172,30.900716 29.1054893,30.397136 L30.277685,29.202864 C30.7368735,28.7349642 31.4155131,28.5562053 32.0457041,28.7371122 L36.8391408,30.1134845 Z" id="Combined-Shape-Copy" fill="#0B2340" fill-rule="nonzero"></path>
    </g>
</svg>